<mxfile host="app.diagrams.net" modified="2023-11-16T20:18:51.621Z" agent="Mozilla/5.0 (Windows NT 10.0; Win64; x64) AppleWebKit/537.36 (KHTML, like Gecko) Chrome/119.0.0.0 Safari/537.36 Edg/119.0.0.0" etag="qXlAaxWKtEKnZXL6xoBL" version="22.1.2" type="device">
  <diagram name="Page-1" id="q17DKDiXmMCJJl4ZwLc4">
    <mxGraphModel dx="1436" dy="773" grid="1" gridSize="10" guides="1" tooltips="1" connect="1" arrows="1" fold="1" page="1" pageScale="1" pageWidth="2339" pageHeight="3300" math="0" shadow="0">
      <root>
        <mxCell id="0" />
        <mxCell id="1" parent="0" />
        <mxCell id="7t0NmyDC2NJlsHodAtWq-1" value="&lt;b&gt;Student&lt;/b&gt;" style="whiteSpace=wrap;html=1;align=center;" vertex="1" parent="1">
          <mxGeometry x="190" y="290" width="100" height="40" as="geometry" />
        </mxCell>
        <mxCell id="7t0NmyDC2NJlsHodAtWq-3" value="" style="endArrow=none;html=1;rounded=0;exitX=0.5;exitY=1;exitDx=0;exitDy=0;entryX=0.25;entryY=0;entryDx=0;entryDy=0;" edge="1" parent="1" source="7t0NmyDC2NJlsHodAtWq-14" target="7t0NmyDC2NJlsHodAtWq-1">
          <mxGeometry relative="1" as="geometry">
            <mxPoint x="160" y="240" as="sourcePoint" />
            <mxPoint x="580" y="450" as="targetPoint" />
          </mxGeometry>
        </mxCell>
        <mxCell id="7t0NmyDC2NJlsHodAtWq-4" value="&lt;b&gt;St_name&lt;/b&gt;&lt;span id=&quot;docs-internal-guid-22aa97f3-7fff-5628-ff60-64329fbdb07a&quot;&gt;&lt;/span&gt;&lt;span id=&quot;docs-internal-guid-22aa97f3-7fff-5628-ff60-64329fbdb07a&quot;&gt;&lt;/span&gt;" style="ellipse;whiteSpace=wrap;html=1;align=center;" vertex="1" parent="1">
          <mxGeometry x="220" y="200" width="100" height="40" as="geometry" />
        </mxCell>
        <mxCell id="7t0NmyDC2NJlsHodAtWq-5" value="" style="endArrow=none;html=1;rounded=0;exitX=0.5;exitY=1;exitDx=0;exitDy=0;entryX=0.5;entryY=0;entryDx=0;entryDy=0;" edge="1" parent="1" source="7t0NmyDC2NJlsHodAtWq-4" target="7t0NmyDC2NJlsHodAtWq-1">
          <mxGeometry relative="1" as="geometry">
            <mxPoint x="175" y="264" as="sourcePoint" />
            <mxPoint x="250" y="310" as="targetPoint" />
          </mxGeometry>
        </mxCell>
        <mxCell id="7t0NmyDC2NJlsHodAtWq-6" value="&lt;b&gt;Fname&lt;/b&gt;&lt;span id=&quot;docs-internal-guid-22aa97f3-7fff-5628-ff60-64329fbdb07a&quot;&gt;&lt;/span&gt;&lt;span id=&quot;docs-internal-guid-22aa97f3-7fff-5628-ff60-64329fbdb07a&quot;&gt;&lt;/span&gt;" style="ellipse;whiteSpace=wrap;html=1;align=center;" vertex="1" parent="1">
          <mxGeometry x="160" y="120" width="100" height="40" as="geometry" />
        </mxCell>
        <mxCell id="7t0NmyDC2NJlsHodAtWq-7" value="" style="endArrow=none;html=1;rounded=0;exitX=0.5;exitY=1;exitDx=0;exitDy=0;" edge="1" parent="1" source="7t0NmyDC2NJlsHodAtWq-6" target="7t0NmyDC2NJlsHodAtWq-4">
          <mxGeometry relative="1" as="geometry">
            <mxPoint x="285" y="264" as="sourcePoint" />
            <mxPoint x="370" y="330" as="targetPoint" />
          </mxGeometry>
        </mxCell>
        <mxCell id="7t0NmyDC2NJlsHodAtWq-8" value="&lt;b&gt;Lname&lt;/b&gt;&lt;span id=&quot;docs-internal-guid-22aa97f3-7fff-5628-ff60-64329fbdb07a&quot;&gt;&lt;/span&gt;&lt;span id=&quot;docs-internal-guid-22aa97f3-7fff-5628-ff60-64329fbdb07a&quot;&gt;&lt;/span&gt;" style="ellipse;whiteSpace=wrap;html=1;align=center;" vertex="1" parent="1">
          <mxGeometry x="270" y="120" width="100" height="40" as="geometry" />
        </mxCell>
        <mxCell id="7t0NmyDC2NJlsHodAtWq-9" value="" style="endArrow=none;html=1;rounded=0;exitX=0.5;exitY=1;exitDx=0;exitDy=0;" edge="1" parent="1" source="7t0NmyDC2NJlsHodAtWq-8" target="7t0NmyDC2NJlsHodAtWq-4">
          <mxGeometry relative="1" as="geometry">
            <mxPoint x="405" y="264" as="sourcePoint" />
            <mxPoint x="377" y="201" as="targetPoint" />
          </mxGeometry>
        </mxCell>
        <mxCell id="7t0NmyDC2NJlsHodAtWq-10" value="&lt;b&gt;St_age&lt;/b&gt;&lt;span id=&quot;docs-internal-guid-22aa97f3-7fff-5628-ff60-64329fbdb07a&quot;&gt;&lt;/span&gt;&lt;span id=&quot;docs-internal-guid-22aa97f3-7fff-5628-ff60-64329fbdb07a&quot;&gt;&lt;/span&gt;" style="ellipse;whiteSpace=wrap;html=1;align=center;" vertex="1" parent="1">
          <mxGeometry x="330" y="210" width="100" height="40" as="geometry" />
        </mxCell>
        <mxCell id="7t0NmyDC2NJlsHodAtWq-11" value="" style="endArrow=none;html=1;rounded=0;exitX=0.5;exitY=1;exitDx=0;exitDy=0;entryX=0.75;entryY=0;entryDx=0;entryDy=0;" edge="1" parent="1" source="7t0NmyDC2NJlsHodAtWq-10" target="7t0NmyDC2NJlsHodAtWq-1">
          <mxGeometry relative="1" as="geometry">
            <mxPoint x="465" y="374" as="sourcePoint" />
            <mxPoint x="437" y="311" as="targetPoint" />
          </mxGeometry>
        </mxCell>
        <mxCell id="7t0NmyDC2NJlsHodAtWq-12" value="&lt;b&gt;St_address&lt;/b&gt;" style="ellipse;whiteSpace=wrap;html=1;align=center;" vertex="1" parent="1">
          <mxGeometry x="10" y="230" width="100" height="40" as="geometry" />
        </mxCell>
        <mxCell id="7t0NmyDC2NJlsHodAtWq-13" value="" style="endArrow=none;html=1;rounded=0;exitX=1;exitY=1;exitDx=0;exitDy=0;entryX=0;entryY=0.5;entryDx=0;entryDy=0;" edge="1" parent="1" source="7t0NmyDC2NJlsHodAtWq-12" target="7t0NmyDC2NJlsHodAtWq-1">
          <mxGeometry relative="1" as="geometry">
            <mxPoint x="110" y="285" as="sourcePoint" />
            <mxPoint x="-5" y="335" as="targetPoint" />
          </mxGeometry>
        </mxCell>
        <mxCell id="7t0NmyDC2NJlsHodAtWq-14" value="&lt;b&gt;St_id&lt;/b&gt;" style="ellipse;whiteSpace=wrap;html=1;align=center;fontStyle=4;" vertex="1" parent="1">
          <mxGeometry x="110" y="200" width="100" height="40" as="geometry" />
        </mxCell>
        <mxCell id="7t0NmyDC2NJlsHodAtWq-15" value="&lt;b&gt;Department&lt;/b&gt;" style="whiteSpace=wrap;html=1;align=center;" vertex="1" parent="1">
          <mxGeometry x="740" y="250" width="100" height="40" as="geometry" />
        </mxCell>
        <mxCell id="7t0NmyDC2NJlsHodAtWq-16" value="" style="endArrow=none;html=1;rounded=0;exitX=0.5;exitY=1;exitDx=0;exitDy=0;entryX=0.25;entryY=0;entryDx=0;entryDy=0;" edge="1" parent="1" source="7t0NmyDC2NJlsHodAtWq-27" target="7t0NmyDC2NJlsHodAtWq-15">
          <mxGeometry relative="1" as="geometry">
            <mxPoint x="710" y="200" as="sourcePoint" />
            <mxPoint x="1130" y="410" as="targetPoint" />
          </mxGeometry>
        </mxCell>
        <mxCell id="7t0NmyDC2NJlsHodAtWq-17" value="&lt;b&gt;dept_name&lt;/b&gt;&lt;span id=&quot;docs-internal-guid-22aa97f3-7fff-5628-ff60-64329fbdb07a&quot;&gt;&lt;/span&gt;&lt;span id=&quot;docs-internal-guid-22aa97f3-7fff-5628-ff60-64329fbdb07a&quot;&gt;&lt;/span&gt;" style="ellipse;whiteSpace=wrap;html=1;align=center;" vertex="1" parent="1">
          <mxGeometry x="800" y="160" width="100" height="40" as="geometry" />
        </mxCell>
        <mxCell id="7t0NmyDC2NJlsHodAtWq-18" value="" style="endArrow=none;html=1;rounded=0;exitX=0.5;exitY=1;exitDx=0;exitDy=0;entryX=0.5;entryY=0;entryDx=0;entryDy=0;" edge="1" parent="1" source="7t0NmyDC2NJlsHodAtWq-17" target="7t0NmyDC2NJlsHodAtWq-15">
          <mxGeometry relative="1" as="geometry">
            <mxPoint x="725" y="224" as="sourcePoint" />
            <mxPoint x="800" y="270" as="targetPoint" />
          </mxGeometry>
        </mxCell>
        <mxCell id="7t0NmyDC2NJlsHodAtWq-27" value="&lt;b&gt;dept_id&lt;/b&gt;" style="ellipse;whiteSpace=wrap;html=1;align=center;fontStyle=4;" vertex="1" parent="1">
          <mxGeometry x="660" y="160" width="100" height="40" as="geometry" />
        </mxCell>
        <mxCell id="7t0NmyDC2NJlsHodAtWq-28" value="&lt;b&gt;Course&lt;/b&gt;" style="whiteSpace=wrap;html=1;align=center;" vertex="1" parent="1">
          <mxGeometry x="190" y="590" width="100" height="40" as="geometry" />
        </mxCell>
        <mxCell id="7t0NmyDC2NJlsHodAtWq-29" value="" style="endArrow=none;html=1;rounded=0;exitX=1;exitY=0.5;exitDx=0;exitDy=0;entryX=0;entryY=0.25;entryDx=0;entryDy=0;" edge="1" parent="1" source="7t0NmyDC2NJlsHodAtWq-40" target="7t0NmyDC2NJlsHodAtWq-28">
          <mxGeometry relative="1" as="geometry">
            <mxPoint x="160" y="540" as="sourcePoint" />
            <mxPoint x="580" y="750" as="targetPoint" />
          </mxGeometry>
        </mxCell>
        <mxCell id="7t0NmyDC2NJlsHodAtWq-30" value="&lt;b&gt;crs_name&lt;/b&gt;&lt;span id=&quot;docs-internal-guid-22aa97f3-7fff-5628-ff60-64329fbdb07a&quot;&gt;&lt;/span&gt;&lt;span id=&quot;docs-internal-guid-22aa97f3-7fff-5628-ff60-64329fbdb07a&quot;&gt;&lt;/span&gt;" style="ellipse;whiteSpace=wrap;html=1;align=center;" vertex="1" parent="1">
          <mxGeometry x="10" y="638" width="100" height="40" as="geometry" />
        </mxCell>
        <mxCell id="7t0NmyDC2NJlsHodAtWq-31" value="" style="endArrow=none;html=1;rounded=0;exitX=0.922;exitY=0.139;exitDx=0;exitDy=0;exitPerimeter=0;entryX=0;entryY=0.75;entryDx=0;entryDy=0;" edge="1" parent="1" source="7t0NmyDC2NJlsHodAtWq-30" target="7t0NmyDC2NJlsHodAtWq-28">
          <mxGeometry relative="1" as="geometry">
            <mxPoint x="175" y="564" as="sourcePoint" />
            <mxPoint x="190" y="630" as="targetPoint" />
          </mxGeometry>
        </mxCell>
        <mxCell id="7t0NmyDC2NJlsHodAtWq-36" value="&lt;b&gt;crs_duration&lt;/b&gt;" style="ellipse;whiteSpace=wrap;html=1;align=center;" vertex="1" parent="1">
          <mxGeometry x="30" y="700" width="100" height="40" as="geometry" />
        </mxCell>
        <mxCell id="7t0NmyDC2NJlsHodAtWq-37" value="" style="endArrow=none;html=1;rounded=0;entryX=0.25;entryY=1;entryDx=0;entryDy=0;" edge="1" parent="1" source="7t0NmyDC2NJlsHodAtWq-36" target="7t0NmyDC2NJlsHodAtWq-28">
          <mxGeometry relative="1" as="geometry">
            <mxPoint x="465" y="674" as="sourcePoint" />
            <mxPoint x="260" y="670" as="targetPoint" />
          </mxGeometry>
        </mxCell>
        <mxCell id="7t0NmyDC2NJlsHodAtWq-38" value="&lt;b&gt;crs_description&lt;/b&gt;" style="ellipse;whiteSpace=wrap;html=1;align=center;" vertex="1" parent="1">
          <mxGeometry x="20" y="520" width="100" height="40" as="geometry" />
        </mxCell>
        <mxCell id="7t0NmyDC2NJlsHodAtWq-39" value="" style="endArrow=none;html=1;rounded=0;exitX=1;exitY=0.5;exitDx=0;exitDy=0;" edge="1" parent="1" source="7t0NmyDC2NJlsHodAtWq-38" target="7t0NmyDC2NJlsHodAtWq-28">
          <mxGeometry relative="1" as="geometry">
            <mxPoint x="100" y="650" as="sourcePoint" />
            <mxPoint x="-5" y="635" as="targetPoint" />
          </mxGeometry>
        </mxCell>
        <mxCell id="7t0NmyDC2NJlsHodAtWq-40" value="&lt;b&gt;crs_id&lt;/b&gt;" style="ellipse;whiteSpace=wrap;html=1;align=center;fontStyle=4;" vertex="1" parent="1">
          <mxGeometry x="20" y="580" width="100" height="40" as="geometry" />
        </mxCell>
        <mxCell id="7t0NmyDC2NJlsHodAtWq-42" value="&lt;b&gt;takes&lt;/b&gt;" style="shape=rhombus;perimeter=rhombusPerimeter;whiteSpace=wrap;html=1;align=center;" vertex="1" parent="1">
          <mxGeometry x="180" y="420" width="120" height="60" as="geometry" />
        </mxCell>
        <mxCell id="7t0NmyDC2NJlsHodAtWq-43" value="" style="shape=link;html=1;rounded=0;entryX=0.5;entryY=1;entryDx=0;entryDy=0;exitX=0.5;exitY=0;exitDx=0;exitDy=0;" edge="1" parent="1" source="7t0NmyDC2NJlsHodAtWq-42" target="7t0NmyDC2NJlsHodAtWq-1">
          <mxGeometry relative="1" as="geometry">
            <mxPoint x="380" y="440" as="sourcePoint" />
            <mxPoint x="540" y="440" as="targetPoint" />
          </mxGeometry>
        </mxCell>
        <mxCell id="7t0NmyDC2NJlsHodAtWq-46" value="&lt;b&gt;m&lt;/b&gt;" style="text;html=1;align=center;verticalAlign=middle;resizable=0;points=[];autosize=1;strokeColor=none;fillColor=none;" vertex="1" parent="1">
          <mxGeometry x="240" y="328" width="30" height="30" as="geometry" />
        </mxCell>
        <mxCell id="7t0NmyDC2NJlsHodAtWq-48" value="" style="endArrow=none;html=1;rounded=0;entryX=0;entryY=0.5;entryDx=0;entryDy=0;exitX=1;exitY=0.5;exitDx=0;exitDy=0;" edge="1" parent="1" source="7t0NmyDC2NJlsHodAtWq-49" target="7t0NmyDC2NJlsHodAtWq-42">
          <mxGeometry relative="1" as="geometry">
            <mxPoint x="100" y="450" as="sourcePoint" />
            <mxPoint x="540" y="520" as="targetPoint" />
          </mxGeometry>
        </mxCell>
        <mxCell id="7t0NmyDC2NJlsHodAtWq-49" value="&lt;b&gt;grade&lt;/b&gt;" style="ellipse;whiteSpace=wrap;html=1;align=center;" vertex="1" parent="1">
          <mxGeometry x="40" y="430" width="100" height="40" as="geometry" />
        </mxCell>
        <mxCell id="7t0NmyDC2NJlsHodAtWq-50" value="" style="shape=link;html=1;rounded=0;exitX=0.5;exitY=1;exitDx=0;exitDy=0;entryX=0.5;entryY=0;entryDx=0;entryDy=0;" edge="1" parent="1" source="7t0NmyDC2NJlsHodAtWq-42" target="7t0NmyDC2NJlsHodAtWq-28">
          <mxGeometry relative="1" as="geometry">
            <mxPoint x="370" y="490" as="sourcePoint" />
            <mxPoint x="530" y="490" as="targetPoint" />
          </mxGeometry>
        </mxCell>
        <mxCell id="7t0NmyDC2NJlsHodAtWq-52" value="&lt;b&gt;m&lt;/b&gt;" style="text;html=1;align=center;verticalAlign=middle;resizable=0;points=[];autosize=1;strokeColor=none;fillColor=none;" vertex="1" parent="1">
          <mxGeometry x="240" y="560" width="30" height="30" as="geometry" />
        </mxCell>
        <mxCell id="7t0NmyDC2NJlsHodAtWq-53" value="&lt;b&gt;Instructor&lt;/b&gt;" style="whiteSpace=wrap;html=1;align=center;" vertex="1" parent="1">
          <mxGeometry x="740" y="590" width="100" height="40" as="geometry" />
        </mxCell>
        <mxCell id="7t0NmyDC2NJlsHodAtWq-54" value="" style="endArrow=none;html=1;rounded=0;exitX=0.5;exitY=1;exitDx=0;exitDy=0;entryX=0.103;entryY=1.056;entryDx=0;entryDy=0;entryPerimeter=0;" edge="1" parent="1" source="7t0NmyDC2NJlsHodAtWq-61" target="7t0NmyDC2NJlsHodAtWq-53">
          <mxGeometry relative="1" as="geometry">
            <mxPoint x="710" y="540" as="sourcePoint" />
            <mxPoint x="1130" y="750" as="targetPoint" />
          </mxGeometry>
        </mxCell>
        <mxCell id="7t0NmyDC2NJlsHodAtWq-55" value="&lt;b&gt;ins_name&lt;/b&gt;&lt;span id=&quot;docs-internal-guid-22aa97f3-7fff-5628-ff60-64329fbdb07a&quot;&gt;&lt;/span&gt;&lt;span id=&quot;docs-internal-guid-22aa97f3-7fff-5628-ff60-64329fbdb07a&quot;&gt;&lt;/span&gt;" style="ellipse;whiteSpace=wrap;html=1;align=center;" vertex="1" parent="1">
          <mxGeometry x="760" y="730" width="100" height="40" as="geometry" />
        </mxCell>
        <mxCell id="7t0NmyDC2NJlsHodAtWq-56" value="" style="endArrow=none;html=1;rounded=0;exitX=0.5;exitY=0;exitDx=0;exitDy=0;entryX=0.25;entryY=1;entryDx=0;entryDy=0;" edge="1" parent="1" source="7t0NmyDC2NJlsHodAtWq-55" target="7t0NmyDC2NJlsHodAtWq-53">
          <mxGeometry relative="1" as="geometry">
            <mxPoint x="725" y="564" as="sourcePoint" />
            <mxPoint x="800" y="610" as="targetPoint" />
          </mxGeometry>
        </mxCell>
        <mxCell id="7t0NmyDC2NJlsHodAtWq-57" value="&lt;b&gt;ins_hourRate&lt;/b&gt;" style="ellipse;whiteSpace=wrap;html=1;align=center;" vertex="1" parent="1">
          <mxGeometry x="860" y="720" width="100" height="40" as="geometry" />
        </mxCell>
        <mxCell id="7t0NmyDC2NJlsHodAtWq-58" value="" style="endArrow=none;html=1;rounded=0;exitX=0.5;exitY=0;exitDx=0;exitDy=0;entryX=0.5;entryY=1;entryDx=0;entryDy=0;" edge="1" parent="1" source="7t0NmyDC2NJlsHodAtWq-57" target="7t0NmyDC2NJlsHodAtWq-53">
          <mxGeometry relative="1" as="geometry">
            <mxPoint x="1015" y="674" as="sourcePoint" />
            <mxPoint x="987" y="611" as="targetPoint" />
          </mxGeometry>
        </mxCell>
        <mxCell id="7t0NmyDC2NJlsHodAtWq-59" value="&lt;b&gt;ins_salary&lt;/b&gt;" style="ellipse;whiteSpace=wrap;html=1;align=center;" vertex="1" parent="1">
          <mxGeometry x="550" y="710" width="100" height="40" as="geometry" />
        </mxCell>
        <mxCell id="7t0NmyDC2NJlsHodAtWq-60" value="" style="endArrow=none;html=1;rounded=0;exitX=1;exitY=0;exitDx=0;exitDy=0;entryX=0;entryY=0.75;entryDx=0;entryDy=0;" edge="1" parent="1" source="7t0NmyDC2NJlsHodAtWq-59" target="7t0NmyDC2NJlsHodAtWq-53">
          <mxGeometry relative="1" as="geometry">
            <mxPoint x="660" y="585" as="sourcePoint" />
            <mxPoint x="545" y="635" as="targetPoint" />
          </mxGeometry>
        </mxCell>
        <mxCell id="7t0NmyDC2NJlsHodAtWq-61" value="&lt;b&gt;ins_id&lt;/b&gt;" style="ellipse;whiteSpace=wrap;html=1;align=center;fontStyle=4;" vertex="1" parent="1">
          <mxGeometry x="650" y="730" width="100" height="40" as="geometry" />
        </mxCell>
        <mxCell id="7t0NmyDC2NJlsHodAtWq-62" value="&lt;b&gt;ins_bouns&lt;/b&gt;" style="ellipse;whiteSpace=wrap;html=1;align=center;" vertex="1" parent="1">
          <mxGeometry x="960" y="690" width="100" height="40" as="geometry" />
        </mxCell>
        <mxCell id="7t0NmyDC2NJlsHodAtWq-63" value="" style="endArrow=none;html=1;rounded=0;exitX=0;exitY=0;exitDx=0;exitDy=0;entryX=0.75;entryY=1;entryDx=0;entryDy=0;" edge="1" parent="1" source="7t0NmyDC2NJlsHodAtWq-62" target="7t0NmyDC2NJlsHodAtWq-53">
          <mxGeometry relative="1" as="geometry">
            <mxPoint x="1125" y="669" as="sourcePoint" />
            <mxPoint x="925" y="625" as="targetPoint" />
          </mxGeometry>
        </mxCell>
        <mxCell id="7t0NmyDC2NJlsHodAtWq-64" value="&lt;b&gt;ins_address&lt;/b&gt;" style="ellipse;whiteSpace=wrap;html=1;align=center;" vertex="1" parent="1">
          <mxGeometry x="1020" y="650" width="100" height="40" as="geometry" />
        </mxCell>
        <mxCell id="7t0NmyDC2NJlsHodAtWq-65" value="" style="endArrow=none;html=1;rounded=0;exitX=0.033;exitY=0.194;exitDx=0;exitDy=0;entryX=1;entryY=0.75;entryDx=0;entryDy=0;exitPerimeter=0;" edge="1" parent="1" source="7t0NmyDC2NJlsHodAtWq-64" target="7t0NmyDC2NJlsHodAtWq-53">
          <mxGeometry relative="1" as="geometry">
            <mxPoint x="1075" y="514" as="sourcePoint" />
            <mxPoint x="875" y="470" as="targetPoint" />
          </mxGeometry>
        </mxCell>
        <mxCell id="7t0NmyDC2NJlsHodAtWq-66" value="&lt;b&gt;is located in&lt;/b&gt;" style="shape=rhombus;perimeter=rhombusPerimeter;whiteSpace=wrap;html=1;align=center;" vertex="1" parent="1">
          <mxGeometry x="660" y="380" width="120" height="60" as="geometry" />
        </mxCell>
        <mxCell id="7t0NmyDC2NJlsHodAtWq-67" value="&lt;b&gt;manages&lt;/b&gt;" style="shape=rhombus;perimeter=rhombusPerimeter;whiteSpace=wrap;html=1;align=center;" vertex="1" parent="1">
          <mxGeometry x="800" y="380" width="120" height="60" as="geometry" />
        </mxCell>
        <mxCell id="7t0NmyDC2NJlsHodAtWq-68" value="" style="endArrow=none;html=1;rounded=0;entryX=0.75;entryY=0;entryDx=0;entryDy=0;exitX=0.5;exitY=1;exitDx=0;exitDy=0;" edge="1" parent="1" source="7t0NmyDC2NJlsHodAtWq-67" target="7t0NmyDC2NJlsHodAtWq-53">
          <mxGeometry relative="1" as="geometry">
            <mxPoint x="380" y="460" as="sourcePoint" />
            <mxPoint x="540" y="460" as="targetPoint" />
          </mxGeometry>
        </mxCell>
        <mxCell id="7t0NmyDC2NJlsHodAtWq-69" value="&lt;b&gt;1&lt;/b&gt;" style="text;html=1;align=center;verticalAlign=middle;resizable=0;points=[];autosize=1;strokeColor=none;fillColor=none;" vertex="1" parent="1">
          <mxGeometry x="820" y="560" width="30" height="30" as="geometry" />
        </mxCell>
        <mxCell id="7t0NmyDC2NJlsHodAtWq-70" value="" style="shape=link;html=1;rounded=0;exitX=0.75;exitY=1;exitDx=0;exitDy=0;entryX=0.5;entryY=0;entryDx=0;entryDy=0;" edge="1" parent="1" source="7t0NmyDC2NJlsHodAtWq-15" target="7t0NmyDC2NJlsHodAtWq-67">
          <mxGeometry relative="1" as="geometry">
            <mxPoint x="470" y="380" as="sourcePoint" />
            <mxPoint x="810" y="350" as="targetPoint" />
          </mxGeometry>
        </mxCell>
        <mxCell id="7t0NmyDC2NJlsHodAtWq-71" value="" style="resizable=0;html=1;whiteSpace=wrap;align=right;verticalAlign=bottom;" connectable="0" vertex="1" parent="7t0NmyDC2NJlsHodAtWq-70">
          <mxGeometry x="1" relative="1" as="geometry" />
        </mxCell>
        <mxCell id="7t0NmyDC2NJlsHodAtWq-72" value="" style="shape=link;html=1;rounded=0;exitX=0.25;exitY=1;exitDx=0;exitDy=0;entryX=0.5;entryY=0;entryDx=0;entryDy=0;" edge="1" parent="1" source="7t0NmyDC2NJlsHodAtWq-15" target="7t0NmyDC2NJlsHodAtWq-66">
          <mxGeometry relative="1" as="geometry">
            <mxPoint x="825" y="240" as="sourcePoint" />
            <mxPoint x="870" y="390" as="targetPoint" />
          </mxGeometry>
        </mxCell>
        <mxCell id="7t0NmyDC2NJlsHodAtWq-73" value="" style="resizable=0;html=1;whiteSpace=wrap;align=right;verticalAlign=bottom;" connectable="0" vertex="1" parent="7t0NmyDC2NJlsHodAtWq-72">
          <mxGeometry x="1" relative="1" as="geometry" />
        </mxCell>
        <mxCell id="7t0NmyDC2NJlsHodAtWq-74" value="&lt;b&gt;1&lt;/b&gt;" style="text;html=1;align=center;verticalAlign=middle;resizable=0;points=[];autosize=1;strokeColor=none;fillColor=none;" vertex="1" parent="1">
          <mxGeometry x="815" y="288" width="30" height="30" as="geometry" />
        </mxCell>
        <mxCell id="7t0NmyDC2NJlsHodAtWq-75" value="" style="shape=link;html=1;rounded=0;entryX=0.25;entryY=0;entryDx=0;entryDy=0;" edge="1" parent="1" target="7t0NmyDC2NJlsHodAtWq-53">
          <mxGeometry relative="1" as="geometry">
            <mxPoint x="720" y="440" as="sourcePoint" />
            <mxPoint x="765" y="580" as="targetPoint" />
          </mxGeometry>
        </mxCell>
        <mxCell id="7t0NmyDC2NJlsHodAtWq-76" value="" style="resizable=0;html=1;whiteSpace=wrap;align=right;verticalAlign=bottom;" connectable="0" vertex="1" parent="7t0NmyDC2NJlsHodAtWq-75">
          <mxGeometry x="1" relative="1" as="geometry" />
        </mxCell>
        <mxCell id="7t0NmyDC2NJlsHodAtWq-77" value="&lt;b&gt;m&lt;/b&gt;" style="text;html=1;align=center;verticalAlign=middle;resizable=0;points=[];autosize=1;strokeColor=none;fillColor=none;" vertex="1" parent="1">
          <mxGeometry x="730" y="560" width="30" height="30" as="geometry" />
        </mxCell>
        <mxCell id="7t0NmyDC2NJlsHodAtWq-78" value="&lt;b&gt;1&lt;/b&gt;" style="text;html=1;align=center;verticalAlign=middle;resizable=0;points=[];autosize=1;strokeColor=none;fillColor=none;" vertex="1" parent="1">
          <mxGeometry x="730" y="285" width="30" height="30" as="geometry" />
        </mxCell>
        <mxCell id="7t0NmyDC2NJlsHodAtWq-79" value="" style="endArrow=none;html=1;rounded=0;entryX=1;entryY=0.5;entryDx=0;entryDy=0;exitX=1;exitY=0.5;exitDx=0;exitDy=0;" edge="1" parent="1" source="7t0NmyDC2NJlsHodAtWq-80" target="7t0NmyDC2NJlsHodAtWq-67">
          <mxGeometry relative="1" as="geometry">
            <mxPoint x="1040" y="410" as="sourcePoint" />
            <mxPoint x="1120" y="410" as="targetPoint" />
          </mxGeometry>
        </mxCell>
        <mxCell id="7t0NmyDC2NJlsHodAtWq-80" value="&lt;b&gt;hiring Date&lt;/b&gt;" style="ellipse;whiteSpace=wrap;html=1;align=center;" vertex="1" parent="1">
          <mxGeometry x="980" y="390" width="80" height="40" as="geometry" />
        </mxCell>
        <mxCell id="7t0NmyDC2NJlsHodAtWq-81" value="Teaches" style="shape=rhombus;perimeter=rhombusPerimeter;whiteSpace=wrap;html=1;align=center;" vertex="1" parent="1">
          <mxGeometry x="460" y="580" width="120" height="60" as="geometry" />
        </mxCell>
        <mxCell id="7t0NmyDC2NJlsHodAtWq-82" value="" style="shape=link;html=1;rounded=0;exitX=1;exitY=0.5;exitDx=0;exitDy=0;entryX=0;entryY=0.5;entryDx=0;entryDy=0;" edge="1" parent="1" source="7t0NmyDC2NJlsHodAtWq-28" target="7t0NmyDC2NJlsHodAtWq-81">
          <mxGeometry relative="1" as="geometry">
            <mxPoint x="460" y="630" as="sourcePoint" />
            <mxPoint x="620" y="630" as="targetPoint" />
          </mxGeometry>
        </mxCell>
        <mxCell id="7t0NmyDC2NJlsHodAtWq-83" value="" style="resizable=0;html=1;whiteSpace=wrap;align=right;verticalAlign=bottom;" connectable="0" vertex="1" parent="7t0NmyDC2NJlsHodAtWq-82">
          <mxGeometry x="1" relative="1" as="geometry" />
        </mxCell>
        <mxCell id="7t0NmyDC2NJlsHodAtWq-84" value="" style="shape=link;html=1;rounded=0;exitX=1;exitY=0.5;exitDx=0;exitDy=0;entryX=0;entryY=0.5;entryDx=0;entryDy=0;" edge="1" parent="1" source="7t0NmyDC2NJlsHodAtWq-81" target="7t0NmyDC2NJlsHodAtWq-53">
          <mxGeometry relative="1" as="geometry">
            <mxPoint x="500" y="650" as="sourcePoint" />
            <mxPoint x="670" y="650" as="targetPoint" />
          </mxGeometry>
        </mxCell>
        <mxCell id="7t0NmyDC2NJlsHodAtWq-85" value="" style="resizable=0;html=1;whiteSpace=wrap;align=right;verticalAlign=bottom;" connectable="0" vertex="1" parent="7t0NmyDC2NJlsHodAtWq-84">
          <mxGeometry x="1" relative="1" as="geometry" />
        </mxCell>
        <mxCell id="7t0NmyDC2NJlsHodAtWq-86" value="&lt;b&gt;m&lt;/b&gt;" style="text;html=1;align=center;verticalAlign=middle;resizable=0;points=[];autosize=1;strokeColor=none;fillColor=none;" vertex="1" parent="1">
          <mxGeometry x="285" y="608" width="30" height="30" as="geometry" />
        </mxCell>
        <mxCell id="7t0NmyDC2NJlsHodAtWq-87" value="&lt;b&gt;m&lt;/b&gt;" style="text;html=1;align=center;verticalAlign=middle;resizable=0;points=[];autosize=1;strokeColor=none;fillColor=none;" vertex="1" parent="1">
          <mxGeometry x="700" y="608" width="30" height="30" as="geometry" />
        </mxCell>
        <mxCell id="7t0NmyDC2NJlsHodAtWq-89" value="Evaluation" style="ellipse;whiteSpace=wrap;html=1;align=center;" vertex="1" parent="1">
          <mxGeometry x="470" y="470" width="100" height="40" as="geometry" />
        </mxCell>
        <mxCell id="7t0NmyDC2NJlsHodAtWq-93" value="" style="endArrow=none;html=1;rounded=0;exitX=0.5;exitY=1;exitDx=0;exitDy=0;entryX=0.5;entryY=0;entryDx=0;entryDy=0;" edge="1" parent="1" source="7t0NmyDC2NJlsHodAtWq-89" target="7t0NmyDC2NJlsHodAtWq-81">
          <mxGeometry relative="1" as="geometry">
            <mxPoint x="460" y="630" as="sourcePoint" />
            <mxPoint x="620" y="630" as="targetPoint" />
          </mxGeometry>
        </mxCell>
        <mxCell id="7t0NmyDC2NJlsHodAtWq-95" value="&lt;b&gt;Topic&lt;/b&gt;" style="whiteSpace=wrap;html=1;align=center;" vertex="1" parent="1">
          <mxGeometry x="190" y="810" width="100" height="40" as="geometry" />
        </mxCell>
        <mxCell id="7t0NmyDC2NJlsHodAtWq-97" value="&lt;b&gt;top_name&lt;/b&gt;" style="ellipse;whiteSpace=wrap;html=1;align=center;" vertex="1" parent="1">
          <mxGeometry x="140" y="900" width="100" height="40" as="geometry" />
        </mxCell>
        <mxCell id="7t0NmyDC2NJlsHodAtWq-98" value="" style="endArrow=none;html=1;rounded=0;exitX=0.5;exitY=0;exitDx=0;exitDy=0;entryX=0.36;entryY=1.035;entryDx=0;entryDy=0;entryPerimeter=0;" edge="1" parent="1" source="7t0NmyDC2NJlsHodAtWq-97" target="7t0NmyDC2NJlsHodAtWq-95">
          <mxGeometry relative="1" as="geometry">
            <mxPoint x="565" y="869" as="sourcePoint" />
            <mxPoint x="365" y="825" as="targetPoint" />
          </mxGeometry>
        </mxCell>
        <mxCell id="7t0NmyDC2NJlsHodAtWq-100" value="" style="endArrow=none;html=1;rounded=0;exitX=0.5;exitY=0;exitDx=0;exitDy=0;entryX=0.75;entryY=1;entryDx=0;entryDy=0;" edge="1" parent="1" source="7t0NmyDC2NJlsHodAtWq-101" target="7t0NmyDC2NJlsHodAtWq-95">
          <mxGeometry relative="1" as="geometry">
            <mxPoint x="320" y="900" as="sourcePoint" />
            <mxPoint x="315" y="670" as="targetPoint" />
          </mxGeometry>
        </mxCell>
        <mxCell id="7t0NmyDC2NJlsHodAtWq-101" value="&lt;span style=&quot;border-bottom: 1px dotted&quot;&gt;&lt;b&gt;top_id&lt;/b&gt;&lt;/span&gt;" style="ellipse;whiteSpace=wrap;html=1;align=center;" vertex="1" parent="1">
          <mxGeometry x="250" y="900" width="100" height="40" as="geometry" />
        </mxCell>
        <mxCell id="7t0NmyDC2NJlsHodAtWq-102" value="&lt;b&gt;Is classified under&lt;/b&gt;" style="shape=rhombus;perimeter=rhombusPerimeter;whiteSpace=wrap;html=1;align=center;" vertex="1" parent="1">
          <mxGeometry x="180" y="700" width="120" height="60" as="geometry" />
        </mxCell>
        <mxCell id="7t0NmyDC2NJlsHodAtWq-103" value="" style="shape=link;html=1;rounded=0;exitX=0.5;exitY=1;exitDx=0;exitDy=0;entryX=0.5;entryY=0;entryDx=0;entryDy=0;" edge="1" parent="1" source="7t0NmyDC2NJlsHodAtWq-28" target="7t0NmyDC2NJlsHodAtWq-102">
          <mxGeometry relative="1" as="geometry">
            <mxPoint x="280" y="800" as="sourcePoint" />
            <mxPoint x="440" y="800" as="targetPoint" />
          </mxGeometry>
        </mxCell>
        <mxCell id="7t0NmyDC2NJlsHodAtWq-105" value="" style="shape=link;html=1;rounded=0;exitX=0.5;exitY=1;exitDx=0;exitDy=0;entryX=0.5;entryY=0;entryDx=0;entryDy=0;" edge="1" parent="1" source="7t0NmyDC2NJlsHodAtWq-102" target="7t0NmyDC2NJlsHodAtWq-95">
          <mxGeometry relative="1" as="geometry">
            <mxPoint x="360" y="760" as="sourcePoint" />
            <mxPoint x="360" y="850" as="targetPoint" />
          </mxGeometry>
        </mxCell>
        <mxCell id="7t0NmyDC2NJlsHodAtWq-106" value="&lt;b&gt;1&lt;/b&gt;" style="text;html=1;align=center;verticalAlign=middle;resizable=0;points=[];autosize=1;strokeColor=none;fillColor=none;" vertex="1" parent="1">
          <mxGeometry x="240" y="780" width="30" height="30" as="geometry" />
        </mxCell>
        <mxCell id="7t0NmyDC2NJlsHodAtWq-107" value="&lt;b&gt;m&lt;/b&gt;" style="text;html=1;align=center;verticalAlign=middle;resizable=0;points=[];autosize=1;strokeColor=none;fillColor=none;" vertex="1" parent="1">
          <mxGeometry x="240" y="630" width="30" height="30" as="geometry" />
        </mxCell>
      </root>
    </mxGraphModel>
  </diagram>
</mxfile>
